<svg width="78" height="100" viewBox="0 0 78 100" fill="none" xmlns="http://www.w3.org/2000/svg">
<path d="M44.1667 100C30.5834 100 18.375 91.7083 13.3334 79.0833L0.708353 47.375C0.415748 46.6392 0.338876 45.8352 0.486742 45.0573C0.634607 44.2794 1.00109 43.5597 1.54325 42.9825C2.08542 42.4054 2.78082 41.9947 3.548 41.7985C4.31518 41.6024 5.12237 41.6289 5.87502 41.875L9.16669 42.9583C11.5 43.7083 13.4167 45.5 14.3334 47.7917L20.2084 62.5H23.3334V13.5417C23.3334 12.1603 23.8821 10.8356 24.8588 9.85882C25.8356 8.88207 27.1604 8.33333 28.5417 8.33333C29.923 8.33333 31.2478 8.88207 32.2245 9.85882C33.2013 10.8356 33.75 12.1603 33.75 13.5417V50H37.9167V5.20833C37.9167 3.827 38.4654 2.50224 39.4422 1.52549C40.4189 0.548734 41.7437 0 43.125 0C44.5064 0 45.8311 0.548734 46.8079 1.52549C47.7846 2.50224 48.3334 3.827 48.3334 5.20833V50H52.5V11.4583C52.5 10.077 53.0488 8.75224 54.0255 7.77549C55.0023 6.79873 56.327 6.25 57.7084 6.25C59.0897 6.25 60.4145 6.79873 61.3912 7.77549C62.368 8.75224 62.9167 10.077 62.9167 11.4583V50H67.0834V23.9583C67.0834 22.577 67.6321 21.2522 68.6088 20.2755C69.5856 19.2987 70.9104 18.75 72.2917 18.75C73.673 18.75 74.9978 19.2987 75.9745 20.2755C76.9513 21.2522 77.5 22.577 77.5 23.9583V66.6667C77.5 85.0833 62.5834 100 44.1667 100Z" fill="black"/>
</svg>
