<svg width="150" height="150" viewBox="0 0 150 150" fill="none" xmlns="http://www.w3.org/2000/svg">
<path d="M43.5243 100.781C43.5243 102.912 44.371 104.956 45.878 106.463C47.3851 107.97 49.4291 108.817 51.5604 108.817C53.6917 108.817 55.7357 107.97 57.2427 106.463C58.7498 104.956 59.5964 102.912 59.5964 100.781C59.5964 98.65 58.7498 96.6061 57.2427 95.0991C55.7357 93.5922 53.6917 92.7455 51.5604 92.7455C49.4291 92.7455 47.3851 93.5922 45.878 95.0991C44.371 96.6061 43.5243 98.65 43.5243 100.781ZM146.771 48.9509L101.049 3.21429C98.9731 1.15513 96.2107 0 93.2642 0C90.3176 0 87.5552 1.13839 85.4792 3.21429L3.22682 85.4632C1.16066 87.5304 0 90.3335 0 93.2561C0 96.1788 1.16066 98.9819 3.22682 101.049L48.9654 146.786C51.0246 148.845 53.8038 150 56.7503 150C59.6969 150 62.4593 148.862 64.5353 146.786L146.788 64.5368C151.074 60.2344 151.074 53.2366 146.771 48.9509ZM56.7503 136.624L13.3723 93.2478L93.2642 13.3594L136.625 56.7522L56.7503 136.624ZM14.8624 51.8471C14.9853 51.9706 15.1314 52.0686 15.2922 52.1355C15.4531 52.2024 15.6257 52.2368 15.7999 52.2368C15.9741 52.2368 16.1467 52.2024 16.3076 52.1355C16.4685 52.0686 16.6145 51.9706 16.7374 51.8471L51.845 16.7411C51.9685 16.6182 52.0665 16.4721 52.1334 16.3112C52.2003 16.1503 52.2347 15.9778 52.2347 15.8036C52.2347 15.6293 52.2003 15.4568 52.1334 15.2959C52.0665 15.1351 51.9685 14.989 51.845 14.8661L45.4161 8.4375C45.2932 8.31399 45.1471 8.21599 44.9862 8.14911C44.8254 8.08224 44.6528 8.04781 44.4786 8.04781C44.3043 8.04781 44.1318 8.08224 43.9709 8.14911C43.81 8.21599 43.6639 8.31399 43.541 8.4375L8.41677 43.51C8.29326 43.6329 8.19525 43.779 8.12837 43.9399C8.06149 44.1008 8.02707 44.2733 8.02707 44.4475C8.02707 44.6218 8.06149 44.7943 8.12837 44.9552C8.19525 45.1161 8.29326 45.2622 8.41677 45.385L14.8624 51.8471ZM135.169 98.1529C135.046 98.0294 134.9 97.9314 134.739 97.8645C134.578 97.7976 134.406 97.7632 134.231 97.7632C134.057 97.7632 133.885 97.7976 133.724 97.8645C133.563 97.9314 133.417 98.0294 133.294 98.1529L98.1528 133.276C98.0293 133.399 97.9313 133.545 97.8644 133.706C97.7975 133.866 97.7631 134.039 97.7631 134.213C97.7631 134.387 97.7975 134.56 97.8644 134.721C97.9313 134.882 98.0293 135.028 98.1528 135.151L104.582 141.579C104.705 141.703 104.851 141.801 105.012 141.868C105.172 141.935 105.345 141.969 105.519 141.969C105.693 141.969 105.866 141.935 106.027 141.868C106.188 141.801 106.334 141.703 106.457 141.579L141.581 106.473C141.704 106.35 141.802 106.204 141.869 106.043C141.936 105.882 141.971 105.71 141.971 105.536C141.971 105.361 141.936 105.189 141.869 105.028C141.802 104.867 141.704 104.721 141.581 104.598L135.169 98.1529Z" fill="black"/>
</svg>
