<svg width="150" height="150" viewBox="0 0 186 187" fill="none" xmlns="http://www.w3.org/2000/svg">
<path d="M56.5243 116.781C56.5243 118.912 57.371 120.956 58.878 122.463C60.3851 123.97 62.4291 124.817 64.5604 124.817C66.6917 124.817 68.7357 123.97 70.2427 122.463C71.7498 120.956 72.5964 118.912 72.5964 116.781C72.5964 114.65 71.7498 112.606 70.2427 111.099C68.7357 109.592 66.6917 108.746 64.5604 108.746C62.4291 108.746 60.3851 109.592 58.878 111.099C57.371 112.606 56.5243 114.65 56.5243 116.781ZM159.771 64.9509L114.049 19.2143C111.973 17.1551 109.211 16 106.264 16C103.318 16 100.555 17.1384 98.4792 19.2143L16.2268 101.463C14.1607 103.53 13 106.333 13 109.256C13 112.179 14.1607 114.982 16.2268 117.049L61.9654 162.786C64.0246 164.845 66.8038 166 69.7503 166C72.6969 166 75.4593 164.862 77.5353 162.786L159.788 80.5368C164.074 76.2344 164.074 69.2366 159.771 64.9509ZM69.7503 152.624L26.3723 109.248L106.264 29.3594L149.625 72.7522L69.7503 152.624ZM27.8624 67.8471C27.9853 67.9706 28.1314 68.0686 28.2922 68.1355C28.4531 68.2024 28.6257 68.2368 28.7999 68.2368C28.9741 68.2368 29.1467 68.2024 29.3076 68.1355C29.4685 68.0686 29.6145 67.9706 29.7374 67.8471L64.845 32.7411C64.9685 32.6182 65.0665 32.4721 65.1334 32.3112C65.2003 32.1503 65.2347 31.9778 65.2347 31.8036C65.2347 31.6293 65.2003 31.4568 65.1334 31.2959C65.0665 31.1351 64.9685 30.989 64.845 30.8661L58.4161 24.4375C58.2932 24.314 58.1471 24.216 57.9862 24.1491C57.8254 24.0822 57.6528 24.0478 57.4786 24.0478C57.3044 24.0478 57.1318 24.0822 56.9709 24.1491C56.81 24.216 56.6639 24.314 56.541 24.4375L21.4168 59.51C21.2933 59.6329 21.1953 59.779 21.1284 59.9399C21.0615 60.1008 21.0271 60.2733 21.0271 60.4475C21.0271 60.6218 21.0615 60.7943 21.1284 60.9552C21.1953 61.1161 21.2933 61.2622 21.4168 61.385L27.8624 67.8471ZM148.169 114.153C148.046 114.029 147.9 113.931 147.739 113.865C147.578 113.798 147.406 113.763 147.231 113.763C147.057 113.763 146.885 113.798 146.724 113.865C146.563 113.931 146.417 114.029 146.294 114.153L111.153 149.276C111.029 149.399 110.931 149.545 110.864 149.706C110.798 149.866 110.763 150.039 110.763 150.213C110.763 150.387 110.798 150.56 110.864 150.721C110.931 150.882 111.029 151.028 111.153 151.151L117.582 157.579C117.705 157.703 117.851 157.801 118.012 157.868C118.172 157.934 118.345 157.969 118.519 157.969C118.693 157.969 118.866 157.934 119.027 157.868C119.188 157.801 119.334 157.703 119.457 157.579L154.581 122.473C154.704 122.35 154.802 122.204 154.869 122.043C154.936 121.882 154.971 121.71 154.971 121.536C154.971 121.361 154.936 121.189 154.869 121.028C154.802 120.867 154.704 120.721 154.581 120.598L148.169 114.153Z" fill="black"/>
<path d="M39 3L147 184" stroke="#FF0000" stroke-width="9"/>
</svg>
