<svg width="14" height="20" viewBox="0 0 14 20" fill="none" xmlns="http://www.w3.org/2000/svg">
<path d="M14 12.14V18.5C13.97 19.32 13.32 19.97 12.5 20H5.99998C5.61998 20 5.25998 19.85 4.99998 19.57L0.0999756 15.37L0.839976 14.6C1.02998 14.39 1.29998 14.28 1.57998 14.28H1.79998L4.99998 16V6C4.99998 5.73478 5.10533 5.48043 5.29287 5.29289C5.48041 5.10536 5.73476 5 5.99998 5C6.26519 5 6.51955 5.10536 6.70708 5.29289C6.89462 5.48043 6.99998 5.73478 6.99998 6V4C6.99998 3.73478 7.10533 3.48043 7.29287 3.29289C7.48041 3.10536 7.73476 3 7.99998 3C8.26519 3 8.51955 3.10536 8.70708 3.29289C8.89462 3.48043 8.99998 3.73478 8.99998 4V9L13.15 10.84C13.66 11.07 14 11.58 14 12.14ZM9.99998 7.45V6.23C10.23 6.03 10.42 5.79 10.57 5.54C10.84 5.09 11 4.56 11 4C11 3.20435 10.6839 2.44129 10.1213 1.87868C9.55869 1.31607 8.79562 1 7.99998 1C7.20998 1 6.49998 1.31 5.94998 1.81L5.80998 1.95C5.67998 2.09 5.55998 2.24 5.45998 2.4C5.35998 2.56 5.26998 2.74 5.19998 2.92C5.16998 3 5.14998 3.06 5.12998 3.13C4.51406 3.31664 3.97449 3.69639 3.59094 4.21319C3.20739 4.72999 3.00021 5.35643 2.99998 6C2.99998 6.7 3.23998 7.34 3.63998 7.85C3.73998 8 3.86998 8.11 3.99998 8.23V9.46C2.79998 8.77 1.99998 7.5 1.99998 6C1.99998 4.38 2.96998 3 4.34998 2.35C4.99998 0.97 6.37998 0 7.99998 0C9.06084 0 10.0783 0.421427 10.8284 1.17157C11.5785 1.92172 12 2.93913 12 4C12 5.5 11.2 6.77 9.99998 7.46V7.45Z" fill="black"/>
</svg>
